<svg width="55" height="64" viewBox="0 0 55 64" fill="none" xmlns="http://www.w3.org/2000/svg">
<path d="M8.74952 0H34.5086L54.1491 19.6405V55.5564C54.1491 60.2065 50.3556 64 45.7055 64H8.74952C3.85468 64 0 60.1453 0 55.2505V8.74952C0 3.85468 3.85468 0 8.74952 0Z" fill="url(#paint0_linear_1_98)"/>
<mask id="mask0_1_98" style="mask-type:luminance" maskUnits="userSpaceOnUse" x="0" y="0" width="55" height="64">
<path d="M8.74952 0H34.5086L54.1491 19.6405V55.5564C54.1491 60.2065 50.3556 64 45.7055 64H8.74952C3.85468 64 0 60.1453 0 55.2505V8.74952C0 3.85468 3.85468 0 8.74952 0Z" fill="white"/>
</mask>
<g mask="url(#mask0_1_98)">
<path d="M34.5086 0L54.1492 19.6405V20.9254H41.6062C37.5679 20.9254 34.5086 17.8662 34.5086 13.8279V0Z" fill="url(#paint1_linear_1_98)"/>
<path d="M28.0841 21.5372H9.85086C8.4316 21.5372 7.28107 22.6878 7.28107 24.107C7.28107 25.5263 8.4316 26.6768 9.85086 26.6768H28.0841C29.5034 26.6768 30.6539 25.5263 30.6539 24.107C30.6539 22.6878 29.5034 21.5372 28.0841 21.5372Z" fill="white"/>
<path d="M28.0841 32.1836H9.85086C8.4316 32.1836 7.28107 33.3341 7.28107 34.7534C7.28107 36.1726 8.4316 37.3232 9.85086 37.3232H28.0841C29.5034 37.3232 30.6539 36.1726 30.6539 34.7534C30.6539 33.3341 29.5034 32.1836 28.0841 32.1836Z" fill="white"/>
<path d="M14.9904 64.4895C20.6195 50.9675 26.6768 41.9121 33.2237 40.566C38.2409 39.5258 39.2198 43.4417 36.956 49.5602C35.8546 52.4972 36.7112 54.2103 40.0764 53.9656C44.543 53.5985 49.6825 50.8451 56.2294 47.7859" stroke="white" stroke-width="4.6501" stroke-linecap="round" stroke-linejoin="round"/>
</g>
<defs>
<linearGradient id="paint0_linear_1_98" x1="2.26386" y1="59.717" x2="43.87" y2="0.367111" gradientUnits="userSpaceOnUse">
<stop stop-color="#0A74FF"/>
<stop offset="0.45" stop-color="#00B5EE"/>
<stop offset="1" stop-color="#05DCC0"/>
</linearGradient>
<linearGradient id="paint1_linear_1_98" x1="44.3595" y1="10.4627" x2="36.3748" y2="18.4474" gradientUnits="userSpaceOnUse">
<stop stop-color="#0EEE76"/>
<stop offset="1" stop-color="#7CFC53"/>
</linearGradient>
</defs>
</svg>
